<svg width="24" height="24" viewBox="0 0 24 24" fill="none" xmlns="http://www.w3.org/2000/svg">
<path fill-rule="evenodd" clip-rule="evenodd" d="M12.375 3.1543C7.19733 3.1543 3 7.35163 3 12.5293C3 17.707 7.19733 21.9043 12.375 21.9043C17.5527 21.9043 21.75 17.707 21.75 12.5293C21.75 7.35163 17.5527 3.1543 12.375 3.1543ZM13.0291 7.04093C13.0291 6.67969 12.7362 6.38686 12.375 6.38686C12.0138 6.38686 11.7209 6.67969 11.7209 7.04093L11.7209 12.0933C11.7209 12.4545 11.4281 12.7473 11.0669 12.7473H8.75872C8.39749 12.7473 8.10465 13.0402 8.10465 13.4014C8.10465 13.7626 8.39749 14.0555 8.75872 14.0555H11.0669C12.1506 14.0555 13.0291 13.1769 13.0291 12.0933L13.0291 7.04093Z" fill="#B6B6B6"/>
</svg>
