<svg width="41" height="41" viewBox="0 0 41 41" fill="none" xmlns="http://www.w3.org/2000/svg">
<path d="M4.27828 29.7551L0.924192 39.6363L11.238 36.3664L11.3604 36.3276L11.4729 36.3893C14.2384 37.9055 17.4325 38.7519 20.8037 38.7519C31.4785 38.7519 40.1497 30.1853 40.1497 19.5702C40.1497 19.5128 40.1424 19.458 40.1314 19.3807L40.1305 19.3747C40.1204 19.3037 40.1074 19.2123 40.107 19.1107C39.8509 8.73848 31.316 0.429478 20.8037 0.429478C10.41 0.429478 1.94183 8.53912 1.51348 18.7511L1.5131 18.7602L1.51217 18.7692C1.48599 19.024 1.48571 19.3081 1.48571 19.5702C1.48571 23.2074 2.50556 26.5899 4.25156 29.5045L4.32291 29.6237L4.27828 29.7551ZM5.11404 35.1799L7.11 29.2334C5.15158 26.5319 3.99406 23.1649 3.99406 19.5702C3.99406 19.0239 4.03657 18.5078 4.10562 17.9688C4.92723 9.5146 12.1171 2.91077 20.8037 2.91077C29.6301 2.91077 36.8918 9.69689 37.5709 18.2787L37.571 18.2787L37.5712 18.2831C37.5999 18.7288 37.5999 19.173 37.5999 19.566V19.5702C37.5999 28.7759 30.0628 36.2844 20.8037 36.2844C17.4399 36.2844 14.3188 35.287 11.6797 33.5999L5.48906 35.5613L4.92614 35.7397L5.11404 35.1799Z" fill="white" stroke="#1B2C45" stroke-width="0.6"/>
<path d="M18.2389 22.4124L18.2397 22.4131C19.87 23.8622 21.2806 24.449 21.9458 24.7257C22.0463 24.7676 22.1299 24.8023 22.1945 24.8319C22.5363 25.0009 22.8804 24.9788 23.1904 24.8519C23.4915 24.7287 23.7647 24.5059 24.0011 24.2621C24.4443 23.8053 24.8226 23.205 25.0663 22.8183C25.0815 22.7943 25.0961 22.7711 25.1102 22.7487C25.2485 22.5456 25.3392 22.518 25.4015 22.5108C25.5024 22.4991 25.6189 22.529 25.855 22.5896C25.86 22.5909 25.865 22.5922 25.8701 22.5935C25.8773 22.597 25.8852 22.6008 25.8936 22.6048C25.9243 22.6196 25.9686 22.6405 26.0236 22.6662C26.0925 22.6984 26.18 22.7392 26.282 22.7867C26.3432 22.8152 26.4096 22.8461 26.4803 22.8791C26.8583 23.0554 27.3632 23.2917 27.8728 23.5364C28.3831 23.7814 28.8953 24.0333 29.2888 24.241C29.4861 24.3452 29.6494 24.436 29.7663 24.5079C29.8251 24.5441 29.8674 24.5726 29.8947 24.5933C29.8965 24.5946 29.8981 24.5959 29.8997 24.597C29.9046 24.6145 29.9159 24.658 29.9236 24.7398C29.9346 24.855 29.9356 25.0116 29.9204 25.2017C29.8901 25.581 29.7966 26.073 29.6075 26.5999L29.6073 26.6005C29.4378 27.0759 28.9137 27.5825 28.2754 27.991C27.64 28.3975 26.9803 28.6506 26.6216 28.6789L18.2389 22.4124ZM18.2389 22.4124C16.7743 21.1019 15.774 19.5318 15.5041 19.0502L15.504 19.0502M18.2389 22.4124L15.504 19.0502M15.504 19.0502L15.5011 19.0447M15.504 19.0502L15.5011 19.0447M15.5011 19.0447C15.3473 18.7562 15.3605 18.465 15.4558 18.1994C15.5467 17.9462 15.7155 17.7052 15.8906 17.4847C15.9798 17.3723 16.0757 17.2593 16.1703 17.1483C16.1791 17.138 16.1878 17.1277 16.1965 17.1175C16.2832 17.0159 16.3686 16.9157 16.4515 16.8139C16.6349 16.5889 16.7933 16.3712 16.901 16.153L16.9016 16.1518M15.5011 19.0447L16.9016 16.1518M16.9016 16.1518C17.0076 15.9396 16.9714 15.7764 16.8713 15.6065L16.8604 15.588M16.9016 16.1518L16.8604 15.588M16.8604 15.588L16.8523 15.5681M16.8604 15.588L16.8523 15.5681M16.8523 15.5681C16.8431 15.5457 16.8259 15.5038 16.8021 15.4455C16.5765 14.8941 15.7511 12.8769 15.3822 12.0295L15.3822 12.0295M16.8523 15.5681L15.3822 12.0295M15.3822 12.0295L15.3795 12.0231M15.3822 12.0295L15.3795 12.0231M15.3795 12.0231C15.1949 11.5705 15.0348 11.4544 14.9549 11.4196C14.9129 11.4014 14.8697 11.3948 14.8147 11.3949C14.7856 11.395 14.7562 11.3969 14.7191 11.3995L14.7116 11.4C14.6791 11.4023 14.6362 11.4054 14.5944 11.4054C13.3355 11.4054 12.445 11.8476 11.862 12.5731C11.2711 13.3086 10.9669 14.3718 10.9669 15.6588C10.9669 16.1521 11.0705 16.6934 11.2255 17.1756L11.2257 17.1756M15.3795 12.0231L11.2257 17.1756M11.2257 17.1756L11.2288 17.1865M11.2257 17.1756L11.2288 17.1865M11.2288 17.1865C11.6569 18.7132 12.5741 19.9726 12.8402 20.338C12.8609 20.3664 12.8776 20.3894 12.8899 20.4067L12.8901 20.4069M11.2288 17.1865L12.8901 20.4069M12.8901 20.4069C12.9047 20.4276 12.9291 20.4642 12.9632 20.5153M12.8901 20.4069L12.9632 20.5153M12.9632 20.5153C13.5027 21.3232 16.452 25.7401 20.9599 27.4989M12.9632 20.5153L20.9599 27.4989M20.9599 27.4989C23.4183 28.4523 24.6152 28.7554 25.295 28.821C25.6254 28.8528 25.8315 28.8282 26.0048 28.7936C26.0488 28.7849 26.0967 28.7737 26.1481 28.7618C26.285 28.7301 26.4464 28.6927 26.6215 28.6789L20.9599 27.4989Z" fill="white" stroke="#1B2C45" stroke-width="0.6"/>
</svg>
