<svg width="112" height="39" viewBox="0 0 112 39" fill="none" xmlns="http://www.w3.org/2000/svg">
<path d="M22.9572 18.321C22.9572 19.9709 23.4885 20.2943 24.7886 20.7662L25.9832 21.2084V21.4141H17.4904V21.2084L18.6839 20.7662C19.9851 20.2943 20.5153 19.9709 20.5153 18.321V3.00297H20.4625L13.3227 18.8226C12.9784 19.6178 12.633 20.5891 12.3943 21.4141H11.8894C11.7838 20.7959 11.5452 20.0886 11.3329 19.5001L4.45813 3.00297H4.40533V18.321C4.40533 19.9709 4.93661 20.2943 6.23676 20.7662L7.43131 21.2084V21.4141H0V21.2084L1.19455 20.7662C2.4947 20.2943 3.02488 19.9709 3.02488 18.321V3.82684C3.02488 1.88321 2.4947 1.55873 1.19455 1.08795L0 0.645763V0.438971H6.42265L12.8981 16.1123L20.0115 0.438971H25.9832V0.645763L24.7886 1.08795C23.4885 1.55873 22.9572 1.88321 22.9572 3.82684V18.321Z" fill="#DAB77A"/>
<path d="M36.1553 3.82879C36.1553 1.88517 35.624 1.56068 34.3238 1.0888L33.1304 0.647717V0.440924H41.6231V0.647717L40.4286 1.0888C39.1284 1.56068 38.5972 1.88517 38.5972 3.82879V18.3229C38.5972 19.9729 39.1284 20.2963 40.4286 20.7681L41.6231 21.2103V21.416H33.1304V21.2103L34.3238 20.7681C35.624 20.2963 36.1553 19.9729 36.1553 18.3229V3.82879Z" fill="#DAB77A"/>
<path d="M82.3508 12.932L78.7419 4.03559L75.1846 12.932H82.3508ZM74.6544 14.2872L73.0617 18.2052C72.8758 18.6474 72.6899 19.1776 72.6899 19.501C72.6899 20.238 73.1673 20.3854 73.858 20.6801L75.079 21.2103V21.416H68.6827V21.2103L69.4527 20.8858C70.5934 20.414 70.9124 19.6484 71.8935 17.2626L78.4493 1.47269C78.821 0.58832 78.9541 0.323233 79.0069 -0.000156403H79.8825C80.042 0.765415 80.2807 1.2076 80.5194 1.79717L87.2874 18.3229C87.7384 19.4427 88.2697 20.15 89.1453 20.6504L90.1539 21.2103V21.416H82.4564V21.2103L83.5718 20.7384C84.4748 20.3557 84.7927 20.1203 84.7927 19.6187C84.7927 19.2953 84.686 18.9114 84.2614 17.8511L82.8557 14.2872H74.6544Z" fill="#DAB77A"/>
<path d="M97.2705 20.2963C100.03 15.848 105.577 7.06927 108.577 1.61898H100.827C99.7916 1.61898 99.4473 2.23825 98.4376 4.53607L98.0141 5.50843H97.8282V0.440924H111.761V1.41329C109.904 4.12358 104.091 13.7856 100.349 20.2369H108.603C110.089 20.2369 110.328 19.6187 111.523 16.8204L111.814 16.1428H112V21.416H97.2705V20.2963Z" fill="#DAB77A"/>
<path d="M61.5648 10.1347L52.1382 16.4055C52.0139 16.488 51.8566 16.5045 51.7169 16.4506L51.6817 16.4363C51.5112 16.3703 51.399 16.2086 51.399 16.0293V2.83754C51.399 2.63295 51.5431 2.45585 51.7477 2.41076C51.8698 2.38216 51.9985 2.40636 52.103 2.47565L61.5659 8.78721C61.7936 8.93901 61.93 9.1909 61.93 9.46039C61.93 9.72987 61.7936 9.98287 61.5648 10.1347ZM65.5104 9.76177L51.1779 0.20314C51.0206 0.0975456 50.8259 0.0623474 50.64 0.104145C50.331 0.173443 50.1121 0.441832 50.1121 0.750919V20.7306C50.1121 21.0022 50.2815 21.2464 50.541 21.3476L50.5949 21.3685C50.805 21.451 51.0437 21.4246 51.2318 21.3003L65.5093 11.8033C65.8547 11.5723 66.0625 11.1906 66.0625 10.7814C66.0625 10.3744 65.8558 9.99276 65.5104 9.76177Z" fill="#DAB77A"/>
<path d="M17.0633 36.4853C17.086 36.8908 17.1817 37.22 17.3503 37.4731C17.6715 37.9467 18.2375 38.1835 19.0485 38.1835C19.4118 38.1835 19.7427 38.1316 20.0411 38.0278C20.6185 37.8266 20.9072 37.4666 20.9072 36.9476C20.9072 36.5583 20.7856 36.2809 20.5423 36.1155C20.2958 35.9533 19.9097 35.8122 19.3842 35.6922L18.4159 35.4732C17.7834 35.3305 17.3357 35.1732 17.073 35.0012C16.6188 34.7028 16.3918 34.2568 16.3918 33.6632C16.3918 33.0209 16.614 32.4937 17.0584 32.0818C17.5028 31.6698 18.1321 31.4638 18.9463 31.4638C19.6956 31.4638 20.3314 31.6455 20.8537 32.0088C21.3792 32.3689 21.642 32.9463 21.642 33.741H20.7321C20.6834 33.3582 20.5796 33.0647 20.4207 32.8603C20.1255 32.4873 19.6243 32.3007 18.9171 32.3007C18.3462 32.3007 17.9359 32.4208 17.6861 32.6608C17.4363 32.9008 17.3114 33.1798 17.3114 33.4977C17.3114 33.8481 17.4574 34.1043 17.7493 34.2665C17.9407 34.3703 18.3738 34.5001 19.0485 34.6558L20.0509 34.8845C20.5342 34.9948 20.9072 35.1456 21.17 35.337C21.6241 35.6711 21.8512 36.1561 21.8512 36.7919C21.8512 37.5834 21.5625 38.1494 20.9851 38.49C20.4109 38.8306 19.7427 39.0009 18.9804 39.0009C18.0916 39.0009 17.3958 38.7739 16.893 38.3197C16.3902 37.8688 16.1436 37.2574 16.1534 36.4853H17.0633Z" fill="#DAB77A"/>
<path d="M23.1698 31.6439H28.3811V32.5197H24.1138V34.6898H28.0599V35.517H24.1138V37.9402H28.4541V38.7917H23.1698V31.6439Z" fill="#DAB77A"/>
<path d="M29.724 31.6439H30.8675L34.4779 37.4341V31.6439H35.3976V38.7917H34.3125L30.6485 33.0063V38.7917H29.724V31.6439Z" fill="#DAB77A"/>
<path d="M40.5942 35.8625L39.5092 32.7046L38.356 35.8625H40.5942ZM39.0031 31.6439H40.0979L42.6914 38.7917H41.6306L40.9056 36.6507H38.0786L37.305 38.7917H36.3123L39.0031 31.6439Z" fill="#DAB77A"/>
<path d="M42.2778 31.6439H43.4067L45.46 35.0791L47.5134 31.6439H48.6471L45.9466 35.9111V38.7917H44.9783V35.9111L42.2778 31.6439Z" fill="#DAB77A"/>
<path d="M52.4084 35.8625L51.3233 32.7046L50.1701 35.8625H52.4084ZM50.8173 31.6439H51.9121L54.5055 38.7917H53.4448L52.7198 36.6507H49.8928L49.1191 38.7917H48.1265L50.8173 31.6439Z" fill="#DAB77A"/>
<path d="M55.3862 31.6439H56.5297L60.1401 37.4341V31.6439H61.0597V38.7917H59.9747L56.3107 33.0063V38.7917H55.3862V31.6439Z" fill="#DAB77A"/>
<path d="M68.4509 31.459C69.1224 31.459 69.703 31.5887 70.1928 31.8482C70.9032 32.2213 71.3379 32.8749 71.4969 33.8091H70.5383C70.4215 33.2869 70.1799 32.9073 69.8133 32.6705C69.4468 32.4305 68.9845 32.3105 68.4266 32.3105C67.7648 32.3105 67.2069 32.5586 66.7527 33.0549C66.3018 33.5512 66.0764 34.2908 66.0764 35.2737C66.0764 36.1236 66.2629 36.8162 66.6359 37.3514C67.009 37.8834 67.6172 38.1494 68.4606 38.1494C69.1061 38.1494 69.6398 37.9629 70.0615 37.5898C70.4864 37.2136 70.7038 36.607 70.7135 35.77H68.4752V34.9672H71.6137V38.7917H70.9908L70.7573 37.8721C70.4296 38.2321 70.1393 38.4819 69.8863 38.6214C69.4613 38.8614 68.9212 38.9815 68.266 38.9815C67.4193 38.9815 66.6911 38.7074 66.0812 38.1591C65.4163 37.4714 65.0838 36.5275 65.0838 35.3273C65.0838 34.1303 65.4081 33.1782 66.0569 32.471C66.6733 31.7963 67.4712 31.459 68.4509 31.459Z" fill="#DAB77A"/>
<path d="M76.2021 31.4492C77.464 31.4492 78.3982 31.8547 79.0048 32.6657C79.4784 33.2982 79.7152 34.1076 79.7152 35.0937C79.7152 36.1609 79.4443 37.0481 78.9026 37.7553C78.2668 38.5857 77.3602 39.0009 76.1826 39.0009C75.083 39.0009 74.2185 38.6376 73.5892 37.911C73.028 37.2103 72.7474 36.3247 72.7474 35.2543C72.7474 34.2876 72.9874 33.4604 73.4675 32.7727C74.0839 31.8904 74.9954 31.4492 76.2021 31.4492ZM76.2994 38.1348C77.1525 38.1348 77.7689 37.8299 78.1484 37.22C78.5312 36.607 78.7226 35.903 78.7226 35.1083C78.7226 34.2681 78.502 33.5918 78.0608 33.0793C77.6229 32.5667 77.0228 32.3105 76.2605 32.3105C75.5209 32.3105 74.9175 32.5651 74.4504 33.0744C73.9833 33.5804 73.7497 34.3281 73.7497 35.3175C73.7497 36.109 73.9492 36.7773 74.3482 37.3222C74.7505 37.864 75.4009 38.1348 76.2994 38.1348Z" fill="#DAB77A"/>
<path d="M80.8733 31.6439H81.8415V37.9402H85.4617V38.7917H80.8733V31.6439Z" fill="#DAB77A"/>
<path d="M86.5127 31.6439H91.4709V32.5197H87.481V34.6898H90.9892V35.5413H87.481V38.7917H86.5127V31.6439Z" fill="#DAB77A"/>
</svg>
